<?xml version="1.0"?>
<svg width="100" height="100" xmlns="http://www.w3.org/2000/svg" xmlns:svg="http://www.w3.org/2000/svg" version="1.1">
 <title>grid [#1526]</title>
 <desc>Created with Sketch.</desc>

 <g class="layer" display="inline">
  <title>Layer 1</title>
  <g fill="none" fill-rule="evenodd" id="Page-1" transform="translate(0, 0.495) matrix(4.71205, 0, 0, 4.94973, 0.520564, 0.00769846)">
   <g fill="#000000" id="Dribbble-Light-Preview" transform="translate(-219.000000, -200.000000)">
    <g id="icons" transform="translate(56.000000, 160.000000)">
     <path d="m181.9,54l-2.1,0c-1.16,0 -2.1,0.9 -2.1,2l0,2c0,1.1 0.94,2 2.1,2l2.1,0c1.16,0 2.1,-0.9 2.1,-2l0,-2c0,-1.1 -0.94,-2 -2.1,-2m-7.35,0l-2.1,0c-1.16,0 -2.1,0.9 -2.1,2l0,2c0,1.1 0.94,2 2.1,2l2.1,0c1.16,0 2.1,-0.9 2.1,-2l0,-2c0,-1.1 -0.94,-2 -2.1,-2m-7.35,0l-2.1,0c-1.16,0 -2.1,0.9 -2.1,2l0,2c0,1.1 0.94,2 2.1,2l2.1,0c1.16,0 2.1,-0.9 2.1,-2l0,-2c0,-1.1 -0.94,-2 -2.1,-2m14.7,-7l-2.1,0c-1.16,0 -2.1,0.9 -2.1,2l0,2c0,1.1 0.94,2 2.1,2l2.1,0c1.16,0 2.1,-0.9 2.1,-2l0,-2c0,-1.1 -0.94,-2 -2.1,-2m-7.35,0l-2.1,0c-1.16,0 -2.1,0.9 -2.1,2l0,2c0,1.1 0.94,2 2.1,2l2.1,0c1.16,0 2.1,-0.9 2.1,-2l0,-2c0,-1.1 -0.94,-2 -2.1,-2m-7.35,0l-2.1,0c-1.16,0 -2.1,0.9 -2.1,2l0,2c0,1.1 0.94,2 2.1,2l2.1,0c1.16,0 2.1,-0.9 2.1,-2l0,-2c0,-1.1 -0.94,-2 -2.1,-2m14.7,-7l-2.1,0c-1.16,0 -2.1,0.9 -2.1,2l0,2c0,1.1 0.94,2 2.1,2l2.1,0c1.16,0 2.1,-0.9 2.1,-2l0,-2c0,-1.1 -0.94,-2 -2.1,-2m-7.35,0l-2.1,0c-1.16,0 -2.1,0.9 -2.1,2l0,2c0,1.1 0.94,2 2.1,2l2.1,0c1.16,0 2.1,-0.9 2.1,-2l0,-2c0,-1.1 -0.94,-2 -2.1,-2m-5.25,2l0,2c0,1.1 -0.94,2 -2.1,2l-2.1,0c-1.16,0 -2.1,-0.9 -2.1,-2l0,-2c0,-1.1 0.94,-2 2.1,-2l2.1,0c1.16,0 2.1,0.9 2.1,2" fill="#995533" id="grid-[#1526]"/>
    </g>
   </g>
  </g>
 </g>
</svg>